  0
SECTION
  2
HEADER
  9
$ACADVER
  1
AC1009
  9
$EXTMAX
 10
730.00927734375
 20
232.0
 30
0.0
  9
$EXTMIN
 10
2.0
 20
2.9001836776733
 30
0.0
  9
$INSUNITS
 70
     4
  9
$LUNITS
 70
     2
  9
$LUPREC
 70
     4
  9
$MEASUREMENT
 70
     1
  0
ENDSEC
  0
SECTION
  2
TABLES
  0
TABLE
  2
LAYER
 70
     1
  0
LAYER
  2
0
 70
     0
 62
     7
  6
Continuous
  0
ENDTAB
  0
TABLE
  2
APPID
 70
     1
  0
APPID
  2
ACAD
 70
     0
  0
ENDTAB
  0
ENDSEC
  0
SECTION
  2
ENTITIES
  0
CIRCLE
  8
0
 10
459.75
 20
13.0
 30
0.0
 40
3.6
  0
CIRCLE
  8
0
 10
459.75
 20
153.0
 30
0.0
 40
3.6
  0
CIRCLE
  8
0
 10
560.25
 20
53.0
 30
0.0
 40
3.6
  0
CIRCLE
  8
0
 10
495.75
 20
13.0
 30
0.0
 40
5.3999999999999
  0
CIRCLE
  8
0
 10
524.25
 20
13.0
 30
0.0
 40
5.4
  0
CIRCLE
  8
0
 10
520.0
 20
96.0
 30
0.0
 40
5.4
  0
CIRCLE
  8
0
 10
495.75
 20
48.0
 30
0.0
 40
5.4
  0
CIRCLE
  8
0
 10
524.25
 20
48.0
 30
0.0
 40
5.4
  0
CIRCLE
  8
0
 10
524.25
 20
118.0
 30
0.0
 40
5.4
  0
CIRCLE
  8
0
 10
495.75
 20
118.0
 30
0.0
 40
5.4
  0
CIRCLE
  8
0
 10
500.0
 20
96.0
 30
0.0
 40
5.4
  0
CIRCLE
  8
0
 10
495.75
 20
153.0
 30
0.0
 40
5.3999999999999
  0
CIRCLE
  8
0
 10
524.25
 20
153.0
 30
0.0
 40
5.4
  0
CIRCLE
  8
0
 10
560.25
 20
13.0
 30
0.0
 40
3.6
  0
CIRCLE
  8
0
 10
560.0
 20
113.0
 30
0.0
 40
3.6
  0
CIRCLE
  8
0
 10
560.25
 20
153.0
 30
0.0
 40
3.6
  0
CIRCLE
  8
0
 10
459.75
 20
113.0
 30
0.0
 40
3.6
  0
CIRCLE
  8
0
 10
459.75
 20
53.0
 30
0.0
 40
3.6
  0
CIRCLE
  8
0
 10
524.25
 20
48.0
 30
0.0
 40
2.45
  0
CIRCLE
  8
0
 10
495.75
 20
118.0
 30
0.0
 40
3.6
  0
CIRCLE
  8
0
 10
495.75
 20
13.0
 30
0.0
 40
3.6
  0
CIRCLE
  8
0
 10
495.75
 20
48.0
 30
0.0
 40
3.6
  0
CIRCLE
  8
0
 10
524.25
 20
153.0
 30
0.0
 40
2.45
  0
CIRCLE
  8
0
 10
524.25
 20
118.0
 30
0.0
 40
2.45
  0
CIRCLE
  8
0
 10
500.0
 20
96.0
 30
0.0
 40
2.5
  0
CIRCLE
  8
0
 10
495.75
 20
153.0
 30
0.0
 40
3.6
  0
CIRCLE
  8
0
 10
524.25
 20
13.0
 30
0.0
 40
2.45
  0
CIRCLE
  8
0
 10
520.0
 20
96.0
 30
0.0
 40
2.5
  0
POLYLINE
  8
0
 66
     1
 10
0.0
 20
0.0
 30
0.0
 70
     1
  0
VERTEX
  8
0
 10
563.6491470389
 20
72.0
 42
0.0
  0
VERTEX
  8
0
 10
570.0
 20
72.0
 42
0.0
  0
VERTEX
  8
0
 10
570.0
 20
13.0
 42
-0.4142135623731
  0
VERTEX
  8
0
 10
560.0
 20
2.9999999999999
 42
0.0
  0
VERTEX
  8
0
 10
460.0
 20
3.0
 42
-0.4142135623731
  0
VERTEX
  8
0
 10
450.0
 20
13.0
 42
0.0
  0
VERTEX
  8
0
 10
450.0
 20
63.9474411167
 42
0.0
  0
VERTEX
  8
0
 10
461.0
 20
63.9474411167
 42
0.0
  0
VERTEX
  8
0
 10
472.0
 20
83.0
 42
0.0
  0
VERTEX
  8
0
 10
461.0
 20
102.0525588833
 42
0.0
  0
VERTEX
  8
0
 10
450.0
 20
102.0525588833
 42
0.0
  0
VERTEX
  8
0
 10
450.0
 20
153.0
 42
-0.4142135623731
  0
VERTEX
  8
0
 10
460.0
 20
163.0
 42
0.0
  0
VERTEX
  8
0
 10
560.0
 20
163.0
 42
-0.4142135623731
  0
VERTEX
  8
0
 10
570.0
 20
153.0
 42
0.0
  0
VERTEX
  8
0
 10
570.0
 20
94.0
 42
0.0
  0
VERTEX
  8
0
 10
563.6491470389
 20
94.0
 42
0.0
  0
VERTEX
  8
0
 10
557.2982940778
 20
83.0
 42
0.0
  0
SEQEND
  0
POLYLINE
  8
0
 66
     1
 10
0.0
 20
0.0
 30
0.0
 70
     1
  0
VERTEX
  8
0
 10
487.4910561304
 20
55.4729382624
 42
0.0
  0
VERTEX
  8
0
 10
525.9601788778
 20
55.4729382624
 42
0.6499972438092
  0
VERTEX
  8
0
 10
527.4442469534
 20
58.8136626737
 42
0.0
  0
VERTEX
  8
0
 10
501.838828024964
 20
87.1566871405131
 42
0.5400985927086
  0
VERTEX
  8
0
 10
498.5335555373
 20
86.642530627
 42
0.0
  0
VERTEX
  8
0
 10
485.669851718377
 20
58.2995061601717
 42
0.5452816348413
  0
SEQEND
  0
CIRCLE
  8
0
 10
604.7546322031
 20
144.375013279
 30
0.0
 40
5.0
  0
CIRCLE
  8
0
 10
604.7546322031
 20
47.1349463558
 30
0.0
 40
5.0
  0
CIRCLE
  8
0
 10
705.2546322031
 20
9.895013279
 30
0.0
 40
5.0
  0
CIRCLE
  8
0
 10
705.2546322031
 20
107.135013279
 30
0.0
 40
5.0
  0
CIRCLE
  8
0
 10
669.2503858786
 20
9.895013279
 30
0.0
 40
5.4000000000002
  0
CIRCLE
  8
0
 10
669.2503858786
 20
39.135013279
 30
0.0
 40
5.4
  0
CIRCLE
  8
0
 10
669.2503858786
 20
115.135013279
 30
0.0
 40
5.4
  0
CIRCLE
  8
0
 10
665.0003858786
 20
77.135013279
 30
0.0
 40
5.4
  0
CIRCLE
  8
0
 10
669.2503858786
 20
144.375013279
 30
0.0
 40
5.4
  0
CIRCLE
  8
0
 10
685.0046322031
 20
26.885013279
 30
0.0
 40
3.6
  0
CIRCLE
  8
0
 10
625.0046322031
 20
127.385013279
 30
0.0
 40
3.57
  0
CIRCLE
  8
0
 10
725.0046322031
 20
26.885013279
 30
0.0
 40
3.6
  0
CIRCLE
  8
0
 10
585.0046322031
 20
26.885013279
 30
0.0
 40
3.6
  0
CIRCLE
  8
0
 10
585.0046322031
 20
127.385013279
 30
0.0
 40
3.6
  0
CIRCLE
  8
0
 10
725.0046322031
 20
127.385013279
 30
0.0
 40
3.6
  0
CIRCLE
  8
0
 10
625.0046322031
 20
26.885013279
 30
0.0
 40
3.6
  0
CIRCLE
  8
0
 10
685.0046322031
 20
127.385013279
 30
0.0
 40
3.57
  0
CIRCLE
  8
0
 10
640.7503858786
 20
144.375013279
 30
0.0
 40
5.4
  0
CIRCLE
  8
0
 10
645.0003858786
 20
77.135013279
 30
0.0
 40
5.4
  0
CIRCLE
  8
0
 10
640.7503858786
 20
115.135013279
 30
0.0
 40
5.4
  0
CIRCLE
  8
0
 10
640.7503858786
 20
39.135013279
 30
0.0
 40
5.4
  0
CIRCLE
  8
0
 10
640.7503858786
 20
9.895013279
 30
0.0
 40
5.4
  0
CIRCLE
  8
0
 10
705.2546322031
 20
144.375013279
 30
0.0
 40
5.0
  0
CIRCLE
  8
0
 10
705.2546322031
 20
47.135013279
 30
0.0
 40
5.0
  0
CIRCLE
  8
0
 10
604.7546322031
 20
9.895013279
 30
0.0
 40
5.0
  0
CIRCLE
  8
0
 10
604.7546322031
 20
107.135013279
 30
0.0
 40
5.0
  0
CIRCLE
  8
0
 10
640.7503858786
 20
9.895013279
 30
0.0
 40
2.45
  0
CIRCLE
  8
0
 10
669.2503858786
 20
144.375013279
 30
0.0
 40
3.6000000000095
  0
CIRCLE
  8
0
 10
640.7503858786
 20
144.375013279
 30
0.0
 40
2.45
  0
CIRCLE
  8
0
 10
705.2546322031
 20
47.135013279
 30
0.0
 40
3.6
  0
CIRCLE
  8
0
 10
665.0003858786
 20
77.135013279
 30
0.0
 40
2.5000000000019
  0
CIRCLE
  8
0
 10
705.2546322031
 20
9.895013279
 30
0.0
 40
3.599999999999
  0
CIRCLE
  8
0
 10
640.7503858786
 20
115.135013279
 30
0.0
 40
2.45
  0
CIRCLE
  8
0
 10
669.2503858786
 20
115.135013279
 30
0.0
 40
3.6000000000032
  0
CIRCLE
  8
0
 10
640.7503858786
 20
39.135013279
 30
0.0
 40
2.45
  0
CIRCLE
  8
0
 10
645.0003858786
 20
77.135013279
 30
0.0
 40
2.5000000000017
  0
CIRCLE
  8
0
 10
669.2503858786
 20
39.135013279
 30
0.0
 40
3.6000000000078
  0
CIRCLE
  8
0
 10
604.7546322031
 20
144.375013279
 30
0.0
 40
3.6
  0
CIRCLE
  8
0
 10
705.2546322031
 20
144.375013279
 30
0.0
 40
3.6
  0
CIRCLE
  8
0
 10
705.2546322031
 20
107.135013279
 30
0.0
 40
3.6
  0
CIRCLE
  8
0
 10
669.2503858786
 20
9.895013279
 30
0.0
 40
3.6000000000017
  0
CIRCLE
  8
0
 10
604.7546322031
 20
9.895013279
 30
0.0
 40
3.6
  0
CIRCLE
  8
0
 10
604.7546322031
 20
47.1349463558
 30
0.0
 40
3.57
  0
CIRCLE
  8
0
 10
604.7546322031
 20
107.135013279
 30
0.0
 40
3.57
  0
POLYLINE
  8
0
 66
     1
 10
0.0
 20
0.0
 30
0.0
 70
     1
  0
VERTEX
  8
0
 10
595.0
 20
151.270026558
 42
0.0
  0
VERTEX
  8
0
 10
715.0092644062
 20
151.270026558
 42
0.4142135623731
  0
VERTEX
  8
0
 10
730.0092644062
 20
136.270026558
 42
0.0
  0
VERTEX
  8
0
 10
730.009264406139
 20
126.956416437449
 42
0.325511250483
  0
VERTEX
  8
0
 10
730.0092644062
 20
27.3136101205
 42
0.0
  0
VERTEX
  8
0
 10
730.0092644062
 20
18.0
 42
0.4142135623731
  0
VERTEX
  8
0
 10
715.0092644062
 20
3.0
 42
0.0
  0
VERTEX
  8
0
 10
595.0
 20
3.0
 42
0.4142135623731
  0
VERTEX
  8
0
 10
580.0
 20
18.0
 42
0.0
  0
VERTEX
  8
0
 10
580.0
 20
27.7393327678877
 42
0.3386548318547
  0
VERTEX
  8
0
 10
580.0
 20
126.530693790112
 42
0.0
  0
VERTEX
  8
0
 10
580.0
 20
136.270026558
 42
0.4142135623731
  0
SEQEND
  0
CIRCLE
  8
0
 10
542.403
 20
179.857
 30
0.0
 40
2.1
  0
CIRCLE
  8
0
 10
589.597
 20
179.857
 30
0.0
 40
2.1
  0
CIRCLE
  8
0
 10
576.0
 20
181.0
 30
0.0
 40
2.5
  0
CIRCLE
  8
0
 10
556.0
 20
181.0
 30
0.0
 40
2.5
  0
CIRCLE
  8
0
 10
566.0
 20
203.428
 30
0.0
 40
9.1
  0
CIRCLE
  8
0
 10
596.0
 20
201.0
 30
0.0
 40
2.5
  0
CIRCLE
  8
0
 10
566.0
 20
203.428
 30
0.0
 40
4.5
  0
CIRCLE
  8
0
 10
630.403
 20
180.857
 30
0.0
 40
2.1
  0
CIRCLE
  8
0
 10
677.597
 20
180.857
 30
0.0
 40
2.1
  0
CIRCLE
  8
0
 10
664.0
 20
182.0
 30
0.0
 40
2.5
  0
CIRCLE
  8
0
 10
644.0
 20
182.0
 30
0.0
 40
2.5
  0
CIRCLE
  8
0
 10
654.0
 20
204.428
 30
0.0
 40
9.1
  0
CIRCLE
  8
0
 10
684.0
 20
202.0
 30
0.0
 40
2.5
  0
CIRCLE
  8
0
 10
624.0
 20
202.0
 30
0.0
 40
2.5
  0
CIRCLE
  8
0
 10
624.0
 20
222.0
 30
0.0
 40
2.5
  0
CIRCLE
  8
0
 10
654.0
 20
204.428
 30
0.0
 40
4.5
  0
POLYLINE
  8
0
 66
     1
 10
0.0
 20
0.0
 30
0.0
 70
     9
  0
VERTEX
  8
0
 10
529.0
 20
171.0
 30
0.0
 42
-0.4142135623731
  0
VERTEX
  8
0
 10
526.0
 20
174.0
 30
0.0
 42
0.0
  0
VERTEX
  8
0
 10
526.0
 20
228.0
 30
0.0
 42
-0.4142135623731
  0
VERTEX
  8
0
 10
529.0
 20
231.0
 30
0.0
 42
0.0
  0
VERTEX
  8
0
 10
543.0
 20
231.0
 30
0.0
 42
-0.4142135623731
  0
VERTEX
  8
0
 10
546.0
 20
228.0
 30
0.0
 42
0.0
  0
VERTEX
  8
0
 10
546.0
 20
226.0
 30
0.0
 42
0.4142135623731
  0
VERTEX
  8
0
 10
551.0
 20
221.0
 30
0.0
 42
0.0
  0
VERTEX
  8
0
 10
603.0
 20
221.0
 30
0.0
 42
-0.4142135623731
  0
VERTEX
  8
0
 10
606.0
 20
218.0
 30
0.0
 42
0.0
  0
VERTEX
  8
0
 10
606.0
 20
174.0
 30
0.0
 42
-0.4142135623731
  0
VERTEX
  8
0
 10
603.0
 20
171.0
 30
0.0
 42
0.0
  0
SEQEND
  0
POLYLINE
  8
0
 66
     1
 10
0.0
 20
0.0
 30
0.0
 70
     9
  0
VERTEX
  8
0
 10
634.0
 20
229.0
 30
0.0
 42
0.0
  0
VERTEX
  8
0
 10
634.0
 20
227.0
 30
0.0
 42
0.4142135623731
  0
VERTEX
  8
0
 10
639.0
 20
222.0
 30
0.0
 42
0.0
  0
VERTEX
  8
0
 10
691.0
 20
222.0
 30
0.0
 42
-0.4142135623731
  0
VERTEX
  8
0
 10
694.0
 20
219.0
 30
0.0
 42
0.0
  0
VERTEX
  8
0
 10
694.0
 20
175.0
 30
0.0
 42
-0.4142135623731
  0
VERTEX
  8
0
 10
691.0
 20
172.0
 30
0.0
 42
0.0
  0
VERTEX
  8
0
 10
617.0
 20
172.0
 30
0.0
 42
-0.4142135623731
  0
VERTEX
  8
0
 10
614.0
 20
175.0
 30
0.0
 42
0.0
  0
VERTEX
  8
0
 10
614.0
 20
229.0
 30
0.0
 42
-0.4142135623731
  0
VERTEX
  8
0
 10
617.0
 20
232.0
 30
0.0
 42
0.0
  0
VERTEX
  8
0
 10
631.0
 20
232.0
 30
0.0
 42
-0.4142135623731
  0
SEQEND
  0
CIRCLE
  8
0
 10
410.597
 20
178.857
 30
0.0
 40
2.15
  0
CIRCLE
  8
0
 10
363.403
 20
178.857
 30
0.0
 40
2.15
  0
CIRCLE
  8
0
 10
377.0
 20
180.0
 30
0.0
 40
2.5
  0
CIRCLE
  8
0
 10
397.0
 20
180.0
 30
0.0
 40
2.5
  0
CIRCLE
  8
0
 10
387.0
 20
202.428
 30
0.0
 40
9.1
  0
CIRCLE
  8
0
 10
357.0
 20
200.0
 30
0.0
 40
2.5
  0
CIRCLE
  8
0
 10
417.0
 20
200.0
 30
0.0
 40
2.5
  0
CIRCLE
  8
0
 10
417.0
 20
220.0
 30
0.0
 40
2.5
  0
CIRCLE
  8
0
 10
387.0
 20
202.428
 30
0.0
 40
4.5
  0
POLYLINE
  8
0
 66
     1
 10
0.0
 20
0.0
 30
0.0
 70
     1
  0
VERTEX
  8
0
 10
347.0
 20
217.0
 42
0.0
  0
VERTEX
  8
0
 10
347.0
 20
173.0
 42
0.4142135623731
  0
VERTEX
  8
0
 10
350.0
 20
170.0
 42
0.0
  0
VERTEX
  8
0
 10
424.0
 20
170.0
 42
0.4142135623731
  0
VERTEX
  8
0
 10
427.0
 20
173.0
 42
0.0
  0
VERTEX
  8
0
 10
427.0
 20
227.0
 42
0.4142135623731
  0
VERTEX
  8
0
 10
424.0
 20
230.0
 42
0.0
  0
VERTEX
  8
0
 10
410.0
 20
230.0
 42
0.4142135623731
  0
VERTEX
  8
0
 10
407.0
 20
227.0
 42
0.0
  0
VERTEX
  8
0
 10
407.0
 20
225.0
 42
-0.4142135623731
  0
VERTEX
  8
0
 10
402.0
 20
220.0
 42
0.0
  0
VERTEX
  8
0
 10
350.0
 20
220.0
 42
0.4142135623731
  0
SEQEND
  0
CIRCLE
  8
0
 10
498.597
 20
178.857
 30
0.0
 40
2.15
  0
CIRCLE
  8
0
 10
451.403
 20
178.857
 30
0.0
 40
2.15
  0
CIRCLE
  8
0
 10
465.0
 20
180.0
 30
0.0
 40
2.5
  0
CIRCLE
  8
0
 10
485.0
 20
180.0
 30
0.0
 40
2.5
  0
CIRCLE
  8
0
 10
475.0
 20
202.428
 30
0.0
 40
9.1
  0
CIRCLE
  8
0
 10
445.0
 20
200.0
 30
0.0
 40
2.5
  0
CIRCLE
  8
0
 10
505.0
 20
200.0
 30
0.0
 40
2.5
  0
CIRCLE
  8
0
 10
505.0
 20
220.0
 30
0.0
 40
2.5
  0
CIRCLE
  8
0
 10
475.0
 20
202.428
 30
0.0
 40
4.5
  0
POLYLINE
  8
0
 66
     1
 10
0.0
 20
0.0
 30
0.0
 70
     1
  0
VERTEX
  8
0
 10
435.0
 20
217.0
 42
0.0
  0
VERTEX
  8
0
 10
435.0
 20
173.0
 42
0.4142135623731
  0
VERTEX
  8
0
 10
438.0
 20
170.0
 42
0.0
  0
VERTEX
  8
0
 10
512.0
 20
170.0
 42
0.4142135623731
  0
VERTEX
  8
0
 10
515.0
 20
173.0
 42
0.0
  0
VERTEX
  8
0
 10
515.0
 20
227.0
 42
0.4142135623731
  0
VERTEX
  8
0
 10
512.0
 20
230.0
 42
0.0
  0
VERTEX
  8
0
 10
498.0
 20
230.0
 42
0.4142135623731
  0
VERTEX
  8
0
 10
495.0
 20
227.0
 42
0.0
  0
VERTEX
  8
0
 10
495.0
 20
225.0
 42
-0.4142135623731
  0
VERTEX
  8
0
 10
490.0
 20
220.0
 42
0.0
  0
VERTEX
  8
0
 10
438.0
 20
220.0
 42
0.4142135623731
  0
SEQEND
  0
CIRCLE
  8
0
 10
387.0
 20
202.428
 30
0.0
 40
11.05
  0
CIRCLE
  8
0
 10
475.0
 20
202.428
 30
0.0
 40
11.05
  0
CIRCLE
  8
0
 10
654.0
 20
204.428
 30
0.0
 40
11.05
  0
CIRCLE
  8
0
 10
566.0
 20
203.428
 30
0.0
 40
11.05
  0
CIRCLE
  8
0
 10
411.25
 20
26.5
 30
0.0
 40
5.0
  0
CIRCLE
  8
0
 10
376.25
 20
26.5
 30
0.0
 40
5.0
  0
CIRCLE
  8
0
 10
288.75
 20
26.5
 30
0.0
 40
5.0
  0
CIRCLE
  8
0
 10
253.75
 20
55.0
 30
0.0
 40
5.0
  0
CIRCLE
  8
0
 10
316.0
 20
50.75
 30
0.0
 40
5.0
  0
CIRCLE
  8
0
 10
376.25
 20
55.0
 30
0.0
 40
5.0
  0
CIRCLE
  8
0
 10
411.25
 20
55.0
 30
0.0
 40
5.0
  0
CIRCLE
  8
0
 10
413.0
 20
91.0
 30
0.0
 40
4.9999999999999
  0
CIRCLE
  8
0
 10
252.0
 20
91.0
 30
0.0
 40
5.0
  0
CIRCLE
  8
0
 10
292.16
 20
192.0
 30
0.0
 40
5.0
  0
CIRCLE
  8
0
 10
227.0
 20
212.0
 30
0.0
 40
5.0
  0
CIRCLE
  8
0
 10
272.16
 20
212.0
 30
0.0
 40
5.0
  0
CIRCLE
  8
0
 10
294.071
 20
205.57
 30
0.0
 40
5.0000000000001
  0
CIRCLE
  8
0
 10
292.16
 20
172.0
 30
0.0
 40
5.0
  0
CIRCLE
  8
0
 10
294.071
 20
158.43
 30
0.0
 40
5.0
  0
CIRCLE
  8
0
 10
272.16
 20
152.0
 30
0.0
 40
5.0
  0
CIRCLE
  8
0
 10
332.5
 20
91.0
 30
0.0
 40
5.0
  0
CIRCLE
  8
0
 10
288.75
 20
55.0
 30
0.0
 40
5.0
  0
CIRCLE
  8
0
 10
253.75
 20
26.5
 30
0.0
 40
5.0
  0
CIRCLE
  8
0
 10
316.0
 20
30.75
 30
0.0
 40
5.0
  0
CIRCLE
  8
0
 10
270.5
 20
182.0
 30
0.0
 40
9.1
  0
CIRCLE
  8
0
 10
294.071
 20
158.43
 30
0.0
 40
2.1
  0
CIRCLE
  8
0
 10
288.75
 20
26.5
 30
0.0
 40
2.45
  0
CIRCLE
  8
0
 10
253.75
 20
26.5
 30
0.0
 40
2.45
  0
CIRCLE
  8
0
 10
227.0
 20
212.0
 30
0.0
 40
2.5
  0
CIRCLE
  8
0
 10
272.16
 20
152.0
 30
0.0
 40
2.45
  0
CIRCLE
  8
0
 10
316.0
 20
30.75
 30
0.0
 40
2.45
  0
CIRCLE
  8
0
 10
252.0
 20
91.0
 30
0.0
 40
3.6
  0
CIRCLE
  8
0
 10
376.25
 20
26.5
 30
0.0
 40
2.45
  0
CIRCLE
  8
0
 10
332.5
 20
91.0
 30
0.0
 40
3.6
  0
CIRCLE
  8
0
 10
411.25
 20
26.5
 30
0.0
 40
2.45
  0
CIRCLE
  8
0
 10
413.0
 20
91.0
 30
0.0
 40
3.6
  0
CIRCLE
  8
0
 10
292.16
 20
172.0
 30
0.0
 40
2.45
  0
CIRCLE
  8
0
 10
411.25
 20
55.0
 30
0.0
 40
3.6
  0
CIRCLE
  8
0
 10
288.75
 20
55.0
 30
0.0
 40
3.6
  0
CIRCLE
  8
0
 10
376.25
 20
55.0
 30
0.0
 40
3.6
  0
CIRCLE
  8
0
 10
272.16
 20
212.0
 30
0.0
 40
2.45
  0
CIRCLE
  8
0
 10
316.0
 20
50.75
 30
0.0
 40
2.45
  0
CIRCLE
  8
0
 10
294.071
 20
205.57
 30
0.0
 40
2.1
  0
CIRCLE
  8
0
 10
253.75
 20
55.0
 30
0.0
 40
3.6
  0
CIRCLE
  8
0
 10
292.16
 20
192.0
 30
0.0
 40
2.45
  0
CIRCLE
  8
0
 10
270.5
 20
182.0
 30
0.0
 40
4.25
  0
CIRCLE
  8
0
 10
15.75
 20
26.5
 30
0.0
 40
5.0000000000001
  0
CIRCLE
  8
0
 10
50.75
 20
26.5
 30
0.0
 40
5.0
  0
CIRCLE
  8
0
 10
138.25
 20
26.5
 30
0.0
 40
5.0000000000001
  0
CIRCLE
  8
0
 10
173.25
 20
55.0
 30
0.0
 40
5.0
  0
CIRCLE
  8
0
 10
111.0
 20
50.75
 30
0.0
 40
5.0000000000001
  0
CIRCLE
  8
0
 10
50.75
 20
55.0
 30
0.0
 40
5.0
  0
CIRCLE
  8
0
 10
15.75
 20
55.0
 30
0.0
 40
5.0
  0
CIRCLE
  8
0
 10
14.0
 20
91.0
 30
0.0
 40
4.9999999999999
  0
CIRCLE
  8
0
 10
175.0
 20
91.0
 30
0.0
 40
5.0000000000001
  0
CIRCLE
  8
0
 10
134.84
 20
192.0
 30
0.0
 40
5.0000000000002
  0
CIRCLE
  8
0
 10
200.0
 20
212.0
 30
0.0
 40
4.9999999999999
  0
CIRCLE
  8
0
 10
156.5
 20
182.0
 30
0.0
 40
4.25
  0
CIRCLE
  8
0
 10
154.84
 20
212.0
 30
0.0
 40
4.9999999999999
  0
CIRCLE
  8
0
 10
132.929
 20
205.57
 30
0.0
 40
4.9999999999999
  0
CIRCLE
  8
0
 10
134.84
 20
172.0
 30
0.0
 40
5.0000000000001
  0
CIRCLE
  8
0
 10
132.929
 20
158.43
 30
0.0
 40
4.9999999999999
  0
CIRCLE
  8
0
 10
154.84
 20
152.0
 30
0.0
 40
5.0
  0
CIRCLE
  8
0
 10
94.5
 20
91.0
 30
0.0
 40
4.9999999999999
  0
CIRCLE
  8
0
 10
138.25
 20
55.0
 30
0.0
 40
4.9999999999999
  0
CIRCLE
  8
0
 10
173.25
 20
26.5
 30
0.0
 40
4.9999999999999
  0
CIRCLE
  8
0
 10
111.0
 20
30.75
 30
0.0
 40
5.0000000000001
  0
CIRCLE
  8
0
 10
154.84
 20
152.0
 30
0.0
 40
2.45
  0
CIRCLE
  8
0
 10
14.0
 20
91.0
 30
0.0
 40
3.6
  0
CIRCLE
  8
0
 10
111.0
 20
30.75
 30
0.0
 40
2.45
  0
CIRCLE
  8
0
 10
175.0
 20
91.0
 30
0.0
 40
3.6
  0
CIRCLE
  8
0
 10
50.75
 20
26.5
 30
0.0
 40
2.45
  0
CIRCLE
  8
0
 10
94.5
 20
91.0
 30
0.0
 40
3.6
  0
CIRCLE
  8
0
 10
15.75
 20
26.5
 30
0.0
 40
2.45
  0
CIRCLE
  8
0
 10
15.75
 20
55.0
 30
0.0
 40
3.6
  0
CIRCLE
  8
0
 10
200.0
 20
212.0
 30
0.0
 40
2.5
  0
CIRCLE
  8
0
 10
50.75
 20
55.0
 30
0.0
 40
3.6
  0
CIRCLE
  8
0
 10
154.84
 20
212.0
 30
0.0
 40
2.45
  0
CIRCLE
  8
0
 10
111.0
 20
50.75
 30
0.0
 40
2.45
  0
CIRCLE
  8
0
 10
132.929
 20
205.57
 30
0.0
 40
2.1
  0
CIRCLE
  8
0
 10
138.25
 20
55.0
 30
0.0
 40
3.6
  0
CIRCLE
  8
0
 10
134.84
 20
192.0
 30
0.0
 40
2.45
  0
CIRCLE
  8
0
 10
173.25
 20
55.0
 30
0.0
 40
3.6
  0
CIRCLE
  8
0
 10
134.84
 20
172.0
 30
0.0
 40
2.45
  0
CIRCLE
  8
0
 10
173.25
 20
26.5
 30
0.0
 40
2.45
  0
CIRCLE
  8
0
 10
132.929
 20
158.43
 30
0.0
 40
2.1
  0
CIRCLE
  8
0
 10
138.25
 20
26.5
 30
0.0
 40
2.45
  0
CIRCLE
  8
0
 10
156.5
 20
182.0
 30
0.0
 40
9.1
  0
POLYLINE
  8
0
 66
     1
 10
0.0
 20
0.0
 30
0.0
 70
     1
  0
VERTEX
  8
0
 10
134.293823813504
 20
111.478637267197
 42
4.5643956040213
  0
VERTEX
  8
0
 10
127.706176186496
 20
111.478637267197
 42
-0.401467224953
  0
VERTEX
  8
0
 10
127.888946939725
 20
111.015530577914
 42
0.0
  0
VERTEX
  8
0
 10
123.166005014774
 20
99.4483196942054
 42
-0.4156947323144
  0
VERTEX
  8
0
 10
122.69495027673
 20
99.2518062709046
 42
0.0
  0
VERTEX
  8
0
 10
120.129599745419
 20
100.314409278009
 42
0.252019199426
  0
VERTEX
  8
0
 10
119.79010612069
 20
100.279983703461
 42
0.0
  0
VERTEX
  8
0
 10
114.148269681406
 20
96.4629999317557
 42
-0.3594323331784
  0
VERTEX
  8
0
 10
113.691983651101
 20
96.5066125495059
 42
0.0
  0
VERTEX
  8
0
 10
108.871635247103
 20
101.326961065978
 42
-0.3594323331784
  0
VERTEX
  8
0
 10
108.828022630371
 20
101.78324710693
 42
0.0
  0
VERTEX
  8
0
 10
112.645006313013
 20
107.425083677857
 42
0.252019199426
  0
VERTEX
  8
0
 10
112.679431886757
 20
107.764577310508
 42
0.0
  0
VERTEX
  8
0
 10
110.35886831771
 20
113.366913481972
 42
0.252019199426
  0
VERTEX
  8
0
 10
110.094467516854
 20
113.58262917458
 42
0.0
  0
VERTEX
  8
0
 10
103.406071666615
 20
114.872994963577
 42
-0.3594323331784
  0
VERTEX
  8
0
 10
103.114267497463
 20
115.226476695051
 42
0.0
  0
VERTEX
  8
0
 10
103.114267497463
 20
122.043478942411
 42
-0.3594323331784
  0
VERTEX
  8
0
 10
103.406071666615
 20
122.396960673885
 42
0.0
  0
VERTEX
  8
0
 10
110.094467516854
 20
123.687326462882
 42
0.252019199426
  0
VERTEX
  8
0
 10
110.35886831771
 20
123.90304215549
 42
0.0
  0
VERTEX
  8
0
 10
112.679431886757
 20
129.505378326955
 42
0.252019199426
  0
VERTEX
  8
0
 10
112.645006313013
 20
129.844871959605
 42
0.0
  0
VERTEX
  8
0
 10
108.828022630371
 20
135.486708530533
 42
-0.3594323331784
  0
VERTEX
  8
0
 10
108.871635247103
 20
135.942994571484
 42
0.0
  0
VERTEX
  8
0
 10
113.691983651101
 20
140.763343087956
 42
-0.3594323331784
  0
VERTEX
  8
0
 10
114.148269681406
 20
140.806955705707
 42
0.0
  0
VERTEX
  8
0
 10
119.79010612069
 20
136.989971934001
 42
0.252019199426
  0
VERTEX
  8
0
 10
120.129599745419
 20
136.955546359454
 42
0.0
  0
VERTEX
  8
0
 10
125.731935786162
 20
139.276109982647
 42
0.252019199426
  0
VERTEX
  8
0
 10
125.947651473737
 20
139.540510789673
 42
0.0
  0
VERTEX
  8
0
 10
127.238017232625
 20
146.228906795974
 42
-0.3594323331784
  0
VERTEX
  8
0
 10
127.591498955852
 20
146.520710971935
 42
0.0
  0
VERTEX
  8
0
 10
134.408501044148
 20
146.520710971935
 42
-0.3594323331784
  0
VERTEX
  8
0
 10
134.761982767375
 20
146.228906795974
 42
0.0
  0
VERTEX
  8
0
 10
136.052348526263
 20
139.540510789673
 42
0.252019199426
  0
VERTEX
  8
0
 10
136.268064213838
 20
139.276109982647
 42
0.0
  0
VERTEX
  8
0
 10
141.870400254581
 20
136.955546359454
 42
0.252019199426
  0
VERTEX
  8
0
 10
142.20989387931
 20
136.989971934001
 42
0.0
  0
VERTEX
  8
0
 10
147.851730318594
 20
140.806955705707
 42
-0.3594323331784
  0
VERTEX
  8
0
 10
148.308016348899
 20
140.763343087956
 42
0.0
  0
VERTEX
  8
0
 10
153.128364752897
 20
135.942994571484
 42
-0.3594323331784
  0
VERTEX
  8
0
 10
153.171977369629
 20
135.486708530533
 42
0.0
  0
VERTEX
  8
0
 10
149.354993686987
 20
129.844871959605
 42
0.252019199426
  0
VERTEX
  8
0
 10
149.320568113243
 20
129.505378326955
 42
0.0
  0
VERTEX
  8
0
 10
151.64113168229
 20
123.90304215549
 42
0.252019199426
  0
VERTEX
  8
0
 10
151.905532483146
 20
123.687326462882
 42
0.0
  0
VERTEX
  8
0
 10
158.593928333384
 20
122.396960673885
 42
-0.3594323331784
  0
VERTEX
  8
0
 10
158.885732502537
 20
122.043478942411
 42
0.0
  0
VERTEX
  8
0
 10
158.885732502537
 20
115.226476695051
 42
-0.3594323331784
  0
VERTEX
  8
0
 10
158.593928333384
 20
114.872994963577
 42
0.0
  0
VERTEX
  8
0
 10
151.905532483146
 20
113.58262917458
 42
0.252019199426
  0
VERTEX
  8
0
 10
151.64113168229
 20
113.366913481972
 42
0.0
  0
VERTEX
  8
0
 10
149.320568113243
 20
107.764577310508
 42
0.252019199426
  0
VERTEX
  8
0
 10
149.354993686987
 20
107.425083677857
 42
0.0
  0
VERTEX
  8
0
 10
153.171977369629
 20
101.78324710693
 42
-0.3594323331784
  0
VERTEX
  8
0
 10
153.128364752897
 20
101.326961065978
 42
0.0
  0
VERTEX
  8
0
 10
148.308016348899
 20
96.5066125495059
 42
-0.3594323331784
  0
VERTEX
  8
0
 10
147.851730318594
 20
96.4629999317557
 42
0.0
  0
VERTEX
  8
0
 10
142.20989387931
 20
100.279983703461
 42
0.252019199426
  0
VERTEX
  8
0
 10
141.870400254581
 20
100.314409278009
 42
0.0
  0
VERTEX
  8
0
 10
139.30504972327
 20
99.2518062709046
 42
-0.4156947323144
  0
VERTEX
  8
0
 10
138.833994985226
 20
99.4483196942053
 42
0.0
  0
VERTEX
  8
0
 10
134.111053060275
 20
111.015530577914
 42
-0.401467224953
  0
SEQEND
  0
POLYLINE
  8
0
 66
     1
 10
0.0
 20
0.0
 30
0.0
 70
     1
  0
VERTEX
  8
0
 10
299.293823813504
 20
112.478637267197
 42
4.5643956040213
  0
VERTEX
  8
0
 10
292.706176186496
 20
112.478637267197
 42
-0.401467224953
  0
VERTEX
  8
0
 10
292.888946939725
 20
112.015530577914
 42
0.0
  0
VERTEX
  8
0
 10
288.166005014774
 20
100.448319694205
 42
-0.4156947323144
  0
VERTEX
  8
0
 10
287.69495027673
 20
100.251806270905
 42
0.0
  0
VERTEX
  8
0
 10
285.129599745419
 20
101.314409278009
 42
0.252019199426
  0
VERTEX
  8
0
 10
284.79010612069
 20
101.279983703461
 42
0.0
  0
VERTEX
  8
0
 10
279.148269681406
 20
97.4629999317557
 42
-0.3594323331784
  0
VERTEX
  8
0
 10
278.691983651101
 20
97.5066125495059
 42
0.0
  0
VERTEX
  8
0
 10
273.871635247103
 20
102.326961065978
 42
-0.3594323331784
  0
VERTEX
  8
0
 10
273.828022630371
 20
102.78324710693
 42
0.0
  0
VERTEX
  8
0
 10
277.645006313013
 20
108.425083677857
 42
0.252019199426
  0
VERTEX
  8
0
 10
277.679431886757
 20
108.764577310508
 42
0.0
  0
VERTEX
  8
0
 10
275.35886831771
 20
114.366913481972
 42
0.252019199426
  0
VERTEX
  8
0
 10
275.094467516854
 20
114.58262917458
 42
0.0
  0
VERTEX
  8
0
 10
268.406071666615
 20
115.872994963577
 42
-0.3594323331784
  0
VERTEX
  8
0
 10
268.114267497463
 20
116.226476695051
 42
0.0
  0
VERTEX
  8
0
 10
268.114267497463
 20
123.043478942411
 42
-0.3594323331784
  0
VERTEX
  8
0
 10
268.406071666615
 20
123.396960673885
 42
0.0
  0
VERTEX
  8
0
 10
275.094467516854
 20
124.687326462882
 42
0.252019199426
  0
VERTEX
  8
0
 10
275.35886831771
 20
124.90304215549
 42
0.0
  0
VERTEX
  8
0
 10
277.679431886757
 20
130.505378326955
 42
0.252019199426
  0
VERTEX
  8
0
 10
277.645006313013
 20
130.844871959605
 42
0.0
  0
VERTEX
  8
0
 10
273.828022630371
 20
136.486708530533
 42
-0.3594323331784
  0
VERTEX
  8
0
 10
273.871635247103
 20
136.942994571484
 42
0.0
  0
VERTEX
  8
0
 10
278.691983651101
 20
141.763343087956
 42
-0.3594323331784
  0
VERTEX
  8
0
 10
279.148269681406
 20
141.806955705707
 42
0.0
  0
VERTEX
  8
0
 10
284.79010612069
 20
137.989971934001
 42
0.252019199426
  0
VERTEX
  8
0
 10
285.129599745419
 20
137.955546359454
 42
0.0
  0
VERTEX
  8
0
 10
290.731935786162
 20
140.276109982647
 42
0.252019199426
  0
VERTEX
  8
0
 10
290.947651473737
 20
140.540510789673
 42
0.0
  0
VERTEX
  8
0
 10
292.238017232625
 20
147.228906795974
 42
-0.3594323331784
  0
VERTEX
  8
0
 10
292.591498955852
 20
147.520710971935
 42
0.0
  0
VERTEX
  8
0
 10
299.408501044148
 20
147.520710971935
 42
-0.3594323331784
  0
VERTEX
  8
0
 10
299.761982767375
 20
147.228906795974
 42
0.0
  0
VERTEX
  8
0
 10
301.052348526263
 20
140.540510789673
 42
0.252019199426
  0
VERTEX
  8
0
 10
301.268064213838
 20
140.276109982647
 42
0.0
  0
VERTEX
  8
0
 10
306.870400254581
 20
137.955546359454
 42
0.252019199426
  0
VERTEX
  8
0
 10
307.20989387931
 20
137.989971934001
 42
0.0
  0
VERTEX
  8
0
 10
312.851730318594
 20
141.806955705707
 42
-0.3594323331784
  0
VERTEX
  8
0
 10
313.308016348899
 20
141.763343087956
 42
0.0
  0
VERTEX
  8
0
 10
318.128364752897
 20
136.942994571484
 42
-0.3594323331784
  0
VERTEX
  8
0
 10
318.171977369629
 20
136.486708530533
 42
0.0
  0
VERTEX
  8
0
 10
314.354993686987
 20
130.844871959605
 42
0.252019199426
  0
VERTEX
  8
0
 10
314.320568113243
 20
130.505378326955
 42
0.0
  0
VERTEX
  8
0
 10
316.64113168229
 20
124.90304215549
 42
0.252019199426
  0
VERTEX
  8
0
 10
316.905532483146
 20
124.687326462882
 42
0.0
  0
VERTEX
  8
0
 10
323.593928333385
 20
123.396960673885
 42
-0.3594323331784
  0
VERTEX
  8
0
 10
323.885732502537
 20
123.043478942411
 42
0.0
  0
VERTEX
  8
0
 10
323.885732502537
 20
116.226476695051
 42
-0.3594323331784
  0
VERTEX
  8
0
 10
323.593928333385
 20
115.872994963577
 42
0.0
  0
VERTEX
  8
0
 10
316.905532483146
 20
114.58262917458
 42
0.252019199426
  0
VERTEX
  8
0
 10
316.64113168229
 20
114.366913481972
 42
0.0
  0
VERTEX
  8
0
 10
314.320568113243
 20
108.764577310508
 42
0.252019199426
  0
VERTEX
  8
0
 10
314.354993686987
 20
108.425083677857
 42
0.0
  0
VERTEX
  8
0
 10
318.171977369629
 20
102.78324710693
 42
-0.3594323331784
  0
VERTEX
  8
0
 10
318.128364752897
 20
102.326961065978
 42
0.0
  0
VERTEX
  8
0
 10
313.308016348899
 20
97.5066125495059
 42
-0.3594323331784
  0
VERTEX
  8
0
 10
312.851730318594
 20
97.4629999317557
 42
0.0
  0
VERTEX
  8
0
 10
307.20989387931
 20
101.279983703461
 42
0.252019199426
  0
VERTEX
  8
0
 10
306.870400254581
 20
101.314409278009
 42
0.0
  0
VERTEX
  8
0
 10
304.30504972327
 20
100.251806270905
 42
-0.4156947323144
  0
VERTEX
  8
0
 10
303.833994985226
 20
100.448319694205
 42
0.0
  0
VERTEX
  8
0
 10
299.111053060275
 20
112.015530577914
 42
-0.401467224953
  0
SEQEND
  0
POLYLINE
  8
0
 66
     1
 10
0.0
 20
0.0
 30
0.0
 70
     1
  0
VERTEX
  8
0
 10
358.0849986386
 20
18.0479812841
 42
0.0
  0
VERTEX
  8
0
 10
330.193453592863
 20
28.5967066539742
 42
-0.539455131247
  0
VERTEX
  8
0
 10
328.735772730011
 20
35.1215346765165
 42
0.0
  0
VERTEX
  8
0
 10
356.627317775711
 20
63.9070394993165
 42
-0.6738969771478
  0
VERTEX
  8
0
 10
363.5
 20
61.1235710087
 42
0.0
  0
VERTEX
  8
0
 10
363.5
 20
21.7893408161
 42
-0.5245491505247
  0
SEQEND
  0
POLYLINE
  8
0
 66
     1
 10
0.0
 20
0.0
 30
0.0
 70
     1
  0
VERTEX
  8
0
 10
68.9150013614368
 20
63.4520187158258
 42
0.5245491505247
  0
VERTEX
  8
0
 10
63.5
 20
59.7106591839
 42
0.0
  0
VERTEX
  8
0
 10
63.5
 20
20.3764289913
 42
0.6738969771478
  0
VERTEX
  8
0
 10
70.3726822243
 20
17.5929605007
 42
0.0
  0
VERTEX
  8
0
 10
98.2642272699889
 20
46.3784653234834
 42
0.539455131247
  0
VERTEX
  8
0
 10
96.8065464071
 20
52.903293346
 42
0.0
  0
SEQEND
  0
POLYLINE
  8
0
 66
     1
 10
0.0
 20
0.0
 30
0.0
 70
     1
  0
VERTEX
  8
0
 10
210.0
 20
202.2607825343
 42
0.0
  0
VERTEX
  8
0
 10
210.0
 20
220.5
 42
0.4142135623731
  0
VERTEX
  8
0
 10
208.5
 20
222.0
 42
0.0
  0
VERTEX
  8
0
 10
130.0138731136
 20
222.0
 42
0.5780786125654
  0
VERTEX
  8
0
 10
121.3645614327
 20
206.9810949954
 42
0.0
  0
VERTEX
  8
0
 10
122.6756077966
 20
204.4345899846
 42
0.0
  0
VERTEX
  8
0
 10
123.6704343802
 20
201.8701168478
 42
0.0
  0
VERTEX
  8
0
 10
124.633066836
 20
197.6799429087
 42
0.0
  0
VERTEX
  8
0
 10
124.8223386834
 20
193.4594240292
 42
0.0
  0
VERTEX
  8
0
 10
124.2741602917
 20
189.2190119933
 42
0.0
  0
VERTEX
  8
0
 10
123.0244420305
 20
184.969158585
 42
0.0
  0
VERTEX
  8
0
 10
121.1090942692
 20
180.7203155883
 42
0.0
  0
VERTEX
  8
0
 10
118.4208880477
 20
176.2715541086
 42
0.0
  0
VERTEX
  8
0
 10
115.0799872259
 20
171.8475289458
 42
0.0
  0
VERTEX
  8
0
 10
111.1279625454
 20
167.4603393463
 42
0.0
  0
VERTEX
  8
0
 10
106.6063847475
 20
163.1220845567
 42
0.0
  0
VERTEX
  8
0
 10
101.5568245737
 20
158.8448638232
 42
0.0
  0
VERTEX
  8
0
 10
96.0208527654
 20
154.6407763924
 42
0.0
  0
VERTEX
  8
0
 10
90.040040064
 20
150.5219215105
 42
0.0
  0
VERTEX
  8
0
 10
83.6559572109
 20
146.5003984241
 42
0.0
  0
VERTEX
  8
0
 10
75.1221381773
 20
141.6014988645
 42
0.0
  0
VERTEX
  8
0
 10
66.0992791437
 20
136.8995837855
 42
0.0
  0
VERTEX
  8
0
 10
56.6699728105
 20
132.4186919555
 42
0.0
  0
VERTEX
  8
0
 10
46.9168118784
 20
128.1828621434
 42
0.0
  0
VERTEX
  8
0
 10
36.9223890479
 20
124.2161331176
 42
0.0
  0
VERTEX
  8
0
 10
23.1210428088
 20
119.3063580189
 42
0.0
  0
VERTEX
  8
0
 10
9.2339040176529
 20
114.996533974555
 42
0.3343141384211
  0
VERTEX
  8
0
 10
2.0000000000001
 20
105.386710198
 42
0.0
  0
VERTEX
  8
0
 10
2.0
 20
6.9001836697
 42
0.4729159933061
  0
VERTEX
  8
0
 10
6.7797356828193
 20
2.9769181593198
 42
-0.098410899117
  0
VERTEX
  8
0
 10
182.220264317167
 20
2.9769181593686
 42
0.4729159933061
  0
VERTEX
  8
0
 10
187.0
 20
6.9001836697
 42
0.0
  0
VERTEX
  8
0
 10
187.0
 20
106.4142834192
 42
0.227250155873
  0
VERTEX
  8
0
 10
183.264385963564
 20
114.208991143002
 42
0.0
  0
VERTEX
  8
0
 10
180.1093159467
 20
117.2352351035
 42
0.0
  0
VERTEX
  8
0
 10
177.6659400365
 20
120.6707176437
 42
0.0
  0
VERTEX
  8
0
 10
175.9342582329
 20
124.5154387636
 42
0.0
  0
VERTEX
  8
0
 10
174.9194625585
 20
128.734700021
 42
0.0
  0
VERTEX
  8
0
 10
174.6053227911
 20
133.3568526689
 42
0.0
  0
VERTEX
  8
0
 10
174.9918389306
 20
138.3818967073
 42
0.0
  0
VERTEX
  8
0
 10
176.0790109771
 20
143.8098321363
 42
0.0
  0
VERTEX
  8
0
 10
177.6048624388
 20
148.8892448197
 42
0.0
  0
VERTEX
  8
0
 10
179.6670454267
 20
154.2770590339
 42
0.0
  0
VERTEX
  8
0
 10
182.2655599406
 20
159.9732747791
 42
0.0
  0
VERTEX
  8
0
 10
185.4004059808
 20
165.9778920553
 42
0.0
  0
VERTEX
  8
0
 10
189.143296621
 20
172.4085476482
 42
0.0
  0
VERTEX
  8
0
 10
193.4421990517
 20
179.158921324
 42
0.0
  0
VERTEX
  8
0
 10
198.2971132728
 20
186.2290130828
 42
0.0
  0
VERTEX
  8
0
 10
203.7080392842
 20
193.6188229246
 42
0.0
  0
VERTEX
  8
0
 10
209.674977086133
 20
201.32835084937
 42
0.1692926980766
  0
SEQEND
  0
POLYLINE
  8
0
 66
     1
 10
0.0
 20
0.0
 30
0.0
 70
     1
  0
VERTEX
  8
0
 10
305.635438567363
 20
206.981094995364
 42
0.5780786125654
  0
VERTEX
  8
0
 10
296.9861268864
 20
222.0
 42
0.0
  0
VERTEX
  8
0
 10
218.5
 20
222.0
 42
0.4142135623731
  0
VERTEX
  8
0
 10
217.0
 20
220.5
 42
0.0
  0
VERTEX
  8
0
 10
217.0
 20
202.2607825343
 42
0.1692926980766
  0
VERTEX
  8
0
 10
217.3250229139
 20
201.3283508493
 42
0.0
  0
VERTEX
  8
0
 10
223.2919607158
 20
193.6188229246
 42
0.0
  0
VERTEX
  8
0
 10
228.7028867272
 20
186.2290130828
 42
0.0
  0
VERTEX
  8
0
 10
233.5578009483
 20
179.158921324
 42
0.0
  0
VERTEX
  8
0
 10
237.856703379
 20
172.4085476482
 42
0.0
  0
VERTEX
  8
0
 10
241.5995940192
 20
165.9778920553
 42
0.0
  0
VERTEX
  8
0
 10
244.7344400594
 20
159.9732747791
 42
0.0
  0
VERTEX
  8
0
 10
247.3329545733
 20
154.2770590339
 42
0.0
  0
VERTEX
  8
0
 10
249.3951375612
 20
148.8892448197
 42
0.0
  0
VERTEX
  8
0
 10
250.9209890229
 20
143.8098321363
 42
0.0
  0
VERTEX
  8
0
 10
252.0081610694
 20
138.3818967073
 42
0.0
  0
VERTEX
  8
0
 10
252.3946772089
 20
133.3568526689
 42
0.0
  0
VERTEX
  8
0
 10
252.0805374415
 20
128.734700021
 42
0.0
  0
VERTEX
  8
0
 10
251.0657417671
 20
124.5154387636
 42
0.0
  0
VERTEX
  8
0
 10
249.3340599635
 20
120.6707176437
 42
0.0
  0
VERTEX
  8
0
 10
246.8906840533
 20
117.2352351035
 42
0.0
  0
VERTEX
  8
0
 10
243.735614036436
 20
114.208991143002
 42
0.227250155873
  0
VERTEX
  8
0
 10
240.0
 20
106.4142834192
 42
0.0
  0
VERTEX
  8
0
 10
240.0
 20
6.9001836697
 42
0.4729159933061
  0
VERTEX
  8
0
 10
244.779735682819
 20
2.9769181593198
 42
-0.098410899117
  0
VERTEX
  8
0
 10
420.220264317168
 20
2.9769181593698
 42
0.4729159933061
  0
VERTEX
  8
0
 10
425.0
 20
6.9001836697
 42
0.0
  0
VERTEX
  8
0
 10
425.0
 20
105.386710198
 42
0.3343141384211
  0
VERTEX
  8
0
 10
417.766095982347
 20
114.996533974555
 42
0.0
  0
VERTEX
  8
0
 10
403.8789571912
 20
119.3063580189
 42
0.0
  0
VERTEX
  8
0
 10
390.0776109521
 20
124.2161331176
 42
0.0
  0
VERTEX
  8
0
 10
380.0831881216
 20
128.1828621434
 42
0.0
  0
VERTEX
  8
0
 10
370.3300271895
 20
132.4186919555
 42
0.0
  0
VERTEX
  8
0
 10
360.9007208563
 20
136.8995837855
 42
0.0
  0
VERTEX
  8
0
 10
351.8778618227
 20
141.6014988645
 42
0.0
  0
VERTEX
  8
0
 10
343.3440427891
 20
146.5003984241
 42
0.0
  0
VERTEX
  8
0
 10
336.959959936
 20
150.5219215105
 42
0.0
  0
VERTEX
  8
0
 10
330.9791472346
 20
154.6407763924
 42
0.0
  0
VERTEX
  8
0
 10
325.4431754263
 20
158.8448638232
 42
0.0
  0
VERTEX
  8
0
 10
320.3936152525
 20
163.1220845567
 42
0.0
  0
VERTEX
  8
0
 10
315.8720374546
 20
167.4603393463
 42
0.0
  0
VERTEX
  8
0
 10
311.9200127741
 20
171.8475289458
 42
0.0
  0
VERTEX
  8
0
 10
308.5791119523
 20
176.2715541086
 42
0.0
  0
VERTEX
  8
0
 10
305.8909057308
 20
180.7203155883
 42
0.0
  0
VERTEX
  8
0
 10
303.9755579695
 20
184.969158585
 42
0.0
  0
VERTEX
  8
0
 10
302.7258397083
 20
189.2190119933
 42
0.0
  0
VERTEX
  8
0
 10
302.1776613166
 20
193.4594240292
 42
0.0
  0
VERTEX
  8
0
 10
302.366933164
 20
197.6799429087
 42
0.0
  0
VERTEX
  8
0
 10
303.3295656198
 20
201.8701168478
 42
0.0
  0
VERTEX
  8
0
 10
304.3243922034
 20
204.4345899846
 42
0.0
  0
SEQEND
  0
CIRCLE
  8
0
 10
131.0
 20
119.0
 30
0.0
 40
2.1
  0
CIRCLE
  8
0
 10
296.0
 20
120.0
 30
0.0
 40
2.1
  0
CIRCLE
  8
0
 10
156.5
 20
182.0
 30
0.0
 40
11.05
  0
CIRCLE
  8
0
 10
270.5
 20
182.0
 30
0.0
 40
11.05
  0
ENDSEC
  0
EOF
